<svg width="327" height="36" viewBox="0 0 327 36" fill="none" xmlns="http://www.w3.org/2000/svg">
<g clip-path="url(#clip0_0_1967)">
<rect width="327" height="36" rx="10" fill="#767680" fill-opacity="0.12"/>
<path fill-rule="evenodd" clip-rule="evenodd" d="M22.75 17C22.75 13.8244 20.1756 11.25 17 11.25C13.8244 11.25 11.25 13.8244 11.25 17C11.25 20.1756 13.8244 22.75 17 22.75C18.3173 22.75 19.531 22.3071 20.5006 21.562L23.6517 24.7123L23.7358 24.7849C24.0294 25.0028 24.446 24.9786 24.7123 24.7123C25.0052 24.4194 25.0052 23.9445 24.7123 23.6517L21.562 20.5006C22.3071 19.531 22.75 18.3173 22.75 17ZM12.75 17C12.75 14.6528 14.6528 12.75 17 12.75C19.3472 12.75 21.25 14.6528 21.25 17C21.25 19.3472 19.3472 21.25 17 21.25C14.6528 21.25 12.75 19.3472 12.75 17Z" fill="#3C3C43" fill-opacity="0.6"/>
<path d="M34.8984 20.0547C35.0469 22 36.6953 23.2656 39.0859 23.2656C41.6641 23.2656 43.2969 21.9453 43.2969 19.875C43.2969 18.2188 42.3594 17.3125 40.0234 16.7266L38.8438 16.4141C37.2891 16.0156 36.6719 15.5078 36.6719 14.625C36.6719 13.4844 37.6641 12.7344 39.1641 12.7344C40.5703 12.7344 41.5234 13.4219 41.7188 14.5781H43.1328C43.0156 12.7578 41.3906 11.4609 39.2109 11.4609C36.8281 11.4609 35.2266 12.7578 35.2266 14.6719C35.2266 16.2734 36.1094 17.1953 38.1484 17.7109L39.5938 18.0859C41.1484 18.4766 41.8516 19.0859 41.8516 20.0469C41.8516 21.1641 40.7344 21.9844 39.2188 21.9844C37.6172 21.9844 36.4922 21.2344 36.3203 20.0547H34.8984ZM50.7469 20.8203C50.3953 21.5625 49.6609 21.9609 48.575 21.9609C47.1453 21.9609 46.2156 20.9062 46.1453 19.2422V19.1797H52.2V18.6641C52.2 16.0469 50.8172 14.4297 48.5437 14.4297C46.2312 14.4297 44.7469 16.1484 44.7469 18.7969C44.7469 21.4609 46.2078 23.1484 48.5437 23.1484C50.3875 23.1484 51.7 22.2578 52.0906 20.8203H50.7469ZM48.5281 15.6172C49.8641 15.6172 50.7547 16.6016 50.7859 18.0938H46.1453C46.2469 16.6016 47.1844 15.6172 48.5281 15.6172ZM56.3531 23.1484C57.4781 23.1484 58.4 22.6562 58.9469 21.7578H59.0719V23H60.3531V17.2344C60.3531 15.4844 59.2047 14.4297 57.15 14.4297C55.3531 14.4297 54.025 15.3203 53.8453 16.6719H55.2047C55.3922 16.0078 56.0953 15.625 57.1031 15.625C58.3609 15.625 59.0094 16.1953 59.0094 17.2344V18L56.5797 18.1484C54.6187 18.2656 53.5094 19.1328 53.5094 20.6406C53.5094 22.1797 54.7203 23.1484 56.3531 23.1484ZM56.6031 21.9688C55.6266 21.9688 54.9 21.4688 54.9 20.6094C54.9 19.7656 55.4625 19.3203 56.7437 19.2344L59.0094 19.0859V19.8594C59.0094 21.0625 57.9859 21.9688 56.6031 21.9688ZM62.5375 23H63.8813V17.7812C63.8813 16.5938 64.8109 15.7344 66.0922 15.7344C66.3578 15.7344 66.8422 15.7812 66.9516 15.8125V14.4688C66.7797 14.4453 66.4984 14.4297 66.2797 14.4297C65.1625 14.4297 64.1938 15.0078 63.9438 15.8281H63.8188V14.5781H62.5375V23ZM75.0656 17.1562C74.8312 15.6562 73.5812 14.4297 71.5344 14.4297C69.175 14.4297 67.675 16.1328 67.675 18.7578C67.675 21.4375 69.1828 23.1484 71.5422 23.1484C73.5656 23.1484 74.8234 22.0078 75.0656 20.4609H73.7062C73.4562 21.4141 72.6672 21.9375 71.5344 21.9375C70.0344 21.9375 69.0656 20.7031 69.0656 18.7578C69.0656 16.8516 70.0187 15.6406 71.5344 15.6406C72.7453 15.6406 73.4875 16.3203 73.7062 17.1562H75.0656ZM76.8281 23H78.1719V18.0156C78.1719 16.5938 79 15.6406 80.5078 15.6406C81.7812 15.6406 82.4531 16.3828 82.4531 17.875V23H83.7969V17.5469C83.7969 15.5703 82.6719 14.4297 80.8906 14.4297C79.6016 14.4297 78.7188 14.9766 78.2969 15.9062H78.1719V11.2344H76.8281V23Z" fill="#3C3C43" fill-opacity="0.6"/>
</g>
<defs>
<clipPath id="clip0_0_1967">
<rect width="327" height="36" fill="white"/>
</clipPath>
</defs>
</svg>
